:SAMPLES-PER-SECOND 30
:FULLY-SPECIFIED
:DEGREES
451
root  -15.6664 37.5456 -20.5895 -164.642 -71.195 154.569
RightUpLeg  -11.7817 -4.51661 -17.1787
RightLeg  75.6992 0.0211721 -1.10658
RightFoot  12.3765 -0.575722 3.16636
RightToes  0.00048216 0.542163 -0.142577
Spine  20.3287 1.20289 -3.21389
Spine1  12.1101 2.30753 -5.33183
HEad  2.92223 8.57905 -6.87499
LeftShoulder1  7.34083 -12.214 -40.4297
LeftArm  -12.8334 16.9863 -20.1916
LeftForeArm  72.2184 -79.2285 -86.8326
LeftHand  -0.25398 0.0180481 5.50724
RightShoulder  4.93043 9.17449 32.9472
RightArm  -8.7688 -20.4967 26.876
RightForeArm  56.7397 76.2757 116.73
RightHand  0.784169 -11.3017 -16.2256
LeftUpLeg  -18.7002 27.2758 -18.7782
LeftLeg  29.8258 9.65842 6.29235
LeftFoot  -9.54992 -0.166635 14.2335
LeftToes  1.06243e-005 4.65856e-005 -8.18505e-006
452
root  -16.8281 37.8875 -20.944 -163.33 -73.3092 154.062
RightUpLeg  -18.5868 -3.6198 -16.0521
RightLeg  74.3486 0.107889 -0.718744
RightFoot  9.54609 -0.437353 2.73449
RightToes  0.00048216 0.542163 -0.142577
Spine  21.7093 0.218468 -2.8422
Spine1  12.1529 1.0103 -4.53758
HEad  3.58899 8.05195 -7.16846
LeftShoulder1  7.54061 -12.4788 -40.8777
LeftArm  -13.2811 15.3922 -20.5333
LeftForeArm  64.5821 -79.0497 -79.4662
LeftHand  -0.25398 0.0180481 5.50724
RightShoulder  4.86502 9.10503 32.6426
RightArm  -8.75999 -17.892 26.5064
RightForeArm  51.7115 76.6818 112.718
RightHand  0.816992 -11.3887 -16.6075
LeftUpLeg  -16.5297 25.7747 -17.4869
LeftLeg  29.4669 9.23793 5.96089
LeftFoot  -11.0647 0.0340186 12.7053
LeftToes  1.06243e-005 4.65856e-005 -8.18505e-006
453
root  -18.0005 38.2481 -21.3124 -162.135 -76.1712 153.594
RightUpLeg  -23.4112 -3.98805 -14.9174
RightLeg  68.7941 -0.322418 -1.58192
RightFoot  7.75309 -0.320979 2.21703
RightToes  0.00048216 0.542163 -0.142577
Spine  23.2209 -0.86576 -1.925
Spine1  11.8918 -0.347238 -3.36861
HEad  4.34461 7.09651 -7.11798
LeftShoulder1  7.79002 -12.8087 -41.419
LeftArm  -13.5638 13.5059 -20.9142
LeftForeArm  56.7712 -78.664 -71.6404
LeftHand  -0.25398 0.0180481 5.50724
RightShoulder  4.74888 8.91783 32.2894
RightArm  -9.26585 -16.4207 26.2738
RightForeArm  49.5414 76.8136 111.13
RightHand  0.857595 -11.5772 -16.8589
LeftUpLeg  -13.8247 23.7407 -15.7051
LeftLeg  28.4962 8.42569 5.27944
LeftFoot  -12.218 0.156046 10.5194
LeftToes  1.06243e-005 4.65856e-005 -8.18505e-006
454
root  -19.1684 38.5508 -21.668 -159.756 -78.9784 151.807
RightUpLeg  -26.0232 -5.39305 -13.9554
RightLeg  59.3888 -2.33825 -4.64511
RightFoot  5.24143 -0.221296 1.77741
RightToes  0.00048216 0.542163 -0.142577
Spine  24.8018 -1.82954 -0.878336
Spine1  11.5949 -1.46065 -2.44298
HEad  4.54441 5.94145 -6.93005
LeftShoulder1  7.91478 -13.0206 -41.5524
LeftArm  -13.514 11.4087 -21.7448
LeftForeArm  49.8529 -78.0968 -64.3543
LeftHand  -0.25398 0.0180481 5.50724
RightShoulder  4.66333 8.79212 31.9837
RightArm  -10.0729 -15.9318 25.8459
RightForeArm  49.7818 76.7584 111.678
RightHand  0.82157 -11.2329 -17.1079
LeftUpLeg  -11.3068 21.4447 -14.2338
LeftLeg  27.6055 7.91587 4.81625
LeftFoot  -12.978 0.221216 9.87244
LeftToes  1.06243e-005 4.65856e-005 -8.18505e-006
455
root  -20.3719 38.668 -22.1136 -153.67 -80.8362 146.445
RightUpLeg  -27.0121 -7.50972 -13.2968
RightLeg  46.5095 -5.14376 -6.14603
RightFoot  2.84839 -0.269385 2.32125
RightToes  0.00048216 0.542163 -0.142577
Spine  25.9283 -2.17079 -1.07946
Spine1  11.2559 -2.08997 -1.81264
HEad  4.20989 4.79898 -6.50758
LeftShoulder1  7.93163 -13.1402 -41.3249
LeftArm  -13.2243 9.46045 -22.8267
LeftForeArm  44.8553 -77.495 -58.7382
LeftHand  -0.25398 0.0180481 5.50724
RightShoulder  4.60056 8.68109 31.8134
RightArm  -10.7392 -15.7325 25.1368
RightForeArm  49.6554 76.6867 112.303
RightHand  0.772027 -10.7984 -17.3816
LeftUpLeg  -9.79681 19.3291 -13.5799
LeftLeg  27.9846 7.93742 4.90294
LeftFoot  -14.5214 0.355298 9.69822
LeftToes  1.06243e-005 4.65856e-005 -8.18505e-006
456
root  -21.6455 38.7218 -22.6107 -144.847 -82.2924 138.277
RightUpLeg  -26.5043 -11.6255 -11.8824
RightLeg  30.5554 -5.16838 -3.89502
RightFoot  2.91328 -0.461184 3.80837
RightToes  0.00048216 0.542163 -0.142577
Spine  27.1454 -2.36694 -1.44447
Spine1  10.7237 -2.58914 -1.05236
HEad  3.60018 3.6577 -5.93115
LeftShoulder1  7.97144 -13.3049 -41.1092
LeftArm  -12.8982 7.74988 -23.6948
LeftForeArm  41.1632 -76.9146 -54.491
LeftHand  -0.25398 0.0180481 5.50724
RightShoulder  4.5299 8.52513 31.7147
RightArm  -11.2069 -15.4423 24.479
RightForeArm  48.3092 76.6904 112.04
RightHand  0.784581 -10.8158 -17.582
LeftUpLeg  -8.16717 16.8929 -12.901
LeftLeg  28.4968 8.044 5.06038
LeftFoot  -16.4521 0.450106 7.87956
LeftToes  1.06243e-005 4.65856e-005 -8.18505e-006
457
root  -22.957 38.7134 -23.1085 -130.659 -83.2869 125.129
RightUpLeg  -25.3194 -16.142 -10.6964
RightLeg  13.7792 -3.91732 -0.122133
RightFoot  3.46966 -0.855056 6.80009
RightToes  0.00048216 0.542163 -0.142577
Spine  27.6526 -2.52179 -1.79012
Spine1  10.7835 -3.1726 0.0994843
HEad  2.90496 2.49101 -5.66754
LeftShoulder1  8.06419 -13.5283 -41.0364
LeftArm  -12.5662 5.90845 -24.3237
LeftForeArm  36.6511 -76.0701 -49.6853
LeftHand  -0.25398 0.0180481 5.50724
RightShoulder  4.46393 8.43839 31.4343
RightArm  -11.7099 -15.1131 24.1934
RightForeArm  46.5945 76.783 110.888
RightHand  0.797883 -10.8563 -17.7283
LeftUpLeg  -6.98277 14.0646 -12.7502
LeftLeg  28.9682 8.27613 5.28582
LeftFoot  -18.0343 0.446218 5.74519
LeftToes  1.06243e-005 4.65856e-005 -8.18505e-006
458
root  -24.3098 38.519 -23.6601 -114.743 -83.4484 109.861
RightUpLeg  -22.5902 -13.1062 -13.0347
RightLeg  0.140154 -10.3716 3.94008
RightFoot  1.89859 -1.0869 9.42458
RightToes  0.00048216 0.542163 -0.142577
Spine  28.1991 -2.44606 -2.40935
Spine1  11.1752 -3.54456 1.07651
HEad  2.38373 1.35042 -5.93601
LeftShoulder1  8.20077 -13.8169 -41.0359
LeftArm  -12.1176 3.65028 -24.8573
LeftForeArm  30.426 -74.5683 -43.265
LeftHand  -0.25398 0.0180481 5.50724
RightShoulder  4.41171 8.46301 30.9162
RightArm  -12.2871 -14.6645 24.1951
RightForeArm  43.9558 77.0064 108.104
RightHand  0.734115 -10.3596 -17.9746
LeftUpLeg  -5.99681 12.0601 -12.785
LeftLeg  30.7511 8.69267 5.90646
LeftFoot  -20.1778 0.537486 5.34069
LeftToes  1.06243e-005 4.65856e-005 -8.18505e-006
459
root  -25.6276 38.2409 -24.2396 -100.929 -82.8531 96.5076
RightUpLeg  -22.0541 -13.0759 -12.8807
RightLeg  -5.06659 -11.9643 4.97086
RightFoot  0.76543 -0.908214 8.59899
RightToes  0.00048216 0.542163 -0.142577
Spine  29.0386 -2.178 -2.99304
Spine1  11.6965 -3.754 1.96374
HEad  2.10242 0.252404 -6.35898
LeftShoulder1  8.41502 -14.2523 -41.0779
LeftArm  -11.5595 1.2233 -25.1548
LeftForeArm  24.2896 -72.4801 -36.792
LeftHand  -0.25398 0.0180481 5.50724
RightShoulder  4.33746 8.42184 30.414
RightArm  -12.7562 -13.7199 24.3346
RightForeArm  38.2858 77.367 102.103
RightHand  0.659877 -9.8256 -18.1447
LeftUpLeg  -5.17207 10.7833 -12.8748
LeftLeg  33.1133 8.89088 6.55501
LeftFoot  -22.5862 0.575889 4.54488
LeftToes  1.06243e-005 4.65856e-005 -8.18505e-006
460
root  -26.8343 37.9377 -24.7828 -91.4904 -82.0845 87.5124
RightUpLeg  -24.3389 -13.0839 -12.5615
RightLeg  -0.857587 -11.5731 3.92902
RightFoot  4.40897 -0.667402 5.1685
RightToes  0.00048216 0.542163 -0.142577
Spine  30.9204 -2.21799 -2.47765
Spine1  11.7878 -3.8671 2.05184
HEad  1.50021 -0.78184 -6.57523
LeftShoulder1  8.63594 -14.7552 -40.9877
LeftArm  -11.0886 -1.02707 -25.2723
LeftForeArm  19.8327 -70.3178 -31.8726
LeftHand  -0.25398 0.0180481 5.50724
RightShoulder  4.22376 8.24491 29.9872
RightArm  -13.0095 -11.932 24.7588
RightForeArm  28.0304 77.6489 91.3264
RightHand  0.686756 -10.1785 -17.5532
LeftUpLeg  -5.53197 10.1556 -12.5527
LeftLeg  37.19 8.01602 6.82433
LeftFoot  -23.7444 0.171387 0.210541
LeftToes  1.06243e-005 4.65856e-005 -8.18505e-006
461
root  -27.9825 37.5387 -25.2593 -86.2057 -82.1278 82.6507
RightUpLeg  -27.868 -14.3851 -11.5947
RightLeg  6.38112 -8.17314 3.48883
RightFoot  12.6937 -0.419383 2.35241
RightToes  0.00048216 0.542163 -0.142577
Spine  33.7829 -3.01499 -0.20741
Spine1  11.3943 -3.72136 0.658449
HEad  -0.139391 -1.59634 -6.69593
LeftShoulder1  8.7043 -15.1303 -40.4345
LeftArm  -10.9866 -3.29104 -25.7989
LeftForeArm  16.5963 -68.2107 -28.1881
LeftHand  -0.25398 0.0180481 5.50724
RightShoulder  4.14103 8.21292 29.3694
RightArm  -13.0142 -8.99493 25.3453
RightForeArm  12.7069 77.2341 74.7849
RightHand  0.730206 -11.1084 -15.7342
LeftUpLeg  -8.56624 10.9903 -11.1807
LeftLeg  45.6453 6.88098 7.95272
LeftFoot  -21.4623 -0.284369 -4.84776
LeftToes  1.06243e-005 4.65856e-005 -8.18505e-006
462
root  -29.0089 37.1099 -25.6623 -85.5208 -84.0202 82.5544
RightUpLeg  -32.016 -18.6811 -6.98899
RightLeg  12.8828 -1.97359 3.97182
RightFoot  18.7655 0.0022554 0.462678
RightToes  0.00048216 0.542163 -0.142577
Spine  37.1095 -4.24972 3.71582
Spine1  11.132 -3.1796 -1.10172
HEad  -2.82484 -1.98157 -6.88356
LeftShoulder1  8.67299 -15.4828 -39.4554
LeftArm  -11.5893 -6.06608 -27.0487
LeftForeArm  13.6326 -65.7533 -24.7922
LeftHand  -0.25398 0.0180481 5.50724
RightShoulder  4.16656 8.60519 28.4156
RightArm  -12.6769 -4.37947 25.4362
RightForeArm  -5.84622 74.9752 54.5618
RightHand  0.608353 -11.15 -13.2287
LeftUpLeg  -14.6613 13.6048 -8.34246
LeftLeg  57.4464 6.61001 11.6412
LeftFoot  -14.0813 -0.0771602 -4.66807
LeftToes  1.06243e-005 4.65856e-005 -8.18505e-006
463
root  -29.7932 36.7639 -26.0514 -88.3698 -87.056 86.4302
RightUpLeg  -37.0591 -24.4781 1.47417
RightLeg  18.9607 4.66121 3.65424
RightFoot  18.6323 0.848688 -2.73087
RightToes  0.00048216 0.542163 -0.142577
Spine  40.5497 -5.1701 7.41116
Spine1  11.067 -2.61667 -1.40152
HEad  -6.08248 -1.81961 -7.03455
LeftShoulder1  8.72091 -16.0906 -38.3327
LeftArm  -13.1746 -9.59764 -28.6068
LeftForeArm  10.848 -62.6815 -21.4414
LeftHand  -0.25398 0.0180481 5.50724
RightShoulder  4.23821 9.28021 27.1193
RightArm  -12.0001 2.45941 24.9833
RightForeArm  -22.366 69.8848 36.8359
RightHand  0.369732 -9.79178 -11.0504
LeftUpLeg  -22.6545 16.8068 -5.17045
LeftLeg  67.7557 5.64488 15.5003
LeftFoot  -5.39906 -0.00601116 0.780287
LeftToes  1.06243e-005 4.65856e-005 -8.18505e-006
